<svg width="913" height="2361" viewBox="0 0 913 2361" fill="none" xmlns="http://www.w3.org/2000/svg">
<path d="M5.92485 1084.94C21.3432 1114.5 35.4884 1145.2 52.8164 1173.56C78.1244 1215.74 116.161 1248.8 161.452 1267.98C168.829 1270.06 176.425 1271.27 184.084 1271.59L187.904 1268.05C183.765 1257.52 178.725 1247.37 172.839 1237.71C145.357 1202.16 124.272 1162.1 110.529 1119.31C96.4952 1068.04 93.6967 1014.33 102.325 961.877C110.479 907.187 128.576 854.452 155.723 806.279C171.636 777.211 192.713 750.971 212.304 723.812C233.098 694.461 254.74 665.605 275.958 636.466C300.358 602.729 325.961 569.7 348.664 534.832C374.126 495.72 398.668 455.901 420.522 414.597C437.431 382.365 451.785 348.856 463.453 314.378C487.665 243.208 497.475 167.932 492.309 92.9343C491.602 81.6181 491.319 70.3019 490.329 58.9857C489.127 45.2648 487.641 31.9683 476.184 21.1472C471.657 16.7621 471.091 8.27497 468.404 0.848715C471.445 0.495084 473.425 0 473.991 0C490.4 16.3378 512.113 26.9467 518.973 52.974C523.853 71.4335 535.735 88.3371 544.93 105.453C562.426 140.371 573.267 178.242 576.898 217.13C585.951 293.231 571.806 367.777 551.79 440.412C535.311 501.237 513.881 560.647 497.26 621.401C477.81 692.127 471.869 764.126 495.916 835.277C507.744 873.371 527.564 908.503 554.053 938.325C570.236 955.188 588.884 969.496 609.361 980.761C614.312 983.661 622.021 981.68 628.528 981.963C629.589 975.5 629.589 968.906 628.528 962.443C619.192 935.001 609.078 907.771 598.54 880.754C582.988 840.227 578.401 796.313 585.244 753.447C593.306 696.866 620.607 650.682 660.638 611.994C674.783 598.344 689.918 585.896 705.054 573.519C710.19 570.453 715.707 568.075 721.462 566.447C718.068 583.492 715.592 597.354 712.409 611.075C701.621 653.273 700.101 697.308 707.954 740.15C715.577 776.682 727.643 812.144 743.883 845.745C760.786 881.108 783.984 913.076 805.344 945.964C820.833 969.728 839.292 991.653 853.933 1015.91C880.639 1058.33 898.677 1105.63 907.004 1155.06C915.332 1204.49 913.784 1255.08 902.451 1303.91C890.074 1360.49 861.571 1409.01 832.927 1457.74C808.526 1499.26 781.297 1539.22 758.169 1581.37C726.979 1637.95 714.107 1699.69 712.48 1764.34C711.349 1809.32 704.842 1853.52 681.078 1893.55C674.562 1905.47 665.52 1915.81 654.585 1923.86C643.651 1931.91 631.088 1937.48 617.778 1940.16C594.094 1944.66 570.027 1946.84 545.92 1946.67C475.901 1946.67 405.811 1945.61 335.792 1943.13C310.755 1942.28 285.223 1942.07 262.095 1926.58C246.146 1916.59 233.863 1901.7 227.086 1884.15C212.604 1846.9 204.337 1807.52 202.615 1767.59C200.705 1714.97 194.481 1663.06 173.546 1614.75C158.541 1581.17 140.75 1548.9 120.36 1518.28C72.9733 1445.36 27.6378 1371.66 9.31971 1284.88C4.43117 1262.39 1.59051 1239.5 0.832563 1216.49C-0.44051 1172.57 0.1253 1128.79 0.1253 1084.94H5.92485Z" fill="white"/>
<path d="M463.1 2168.26C423.635 2168.26 384.24 2168.89 344.846 2168.26C328.175 2167.6 311.6 2165.4 295.337 2161.68C278.08 2157.93 267.047 2139.26 269.593 2120.59C271.361 2106.44 286.426 2095.48 303.895 2095.27C374.338 2094.56 444.782 2093.8 515.225 2093C551.154 2092.51 587.154 2091.87 623.012 2090.46C641.754 2089.68 645.008 2106.44 653.495 2116.41C656.748 2120.23 653.495 2132.26 649.817 2138.83C644.924 2148.03 637.554 2155.67 628.542 2160.9C619.53 2166.12 609.236 2168.72 598.824 2168.4C553.771 2168.61 508.435 2168.26 463.1 2168.26Z" fill="white"/>
<path d="M388.058 2202.06C419.531 2202.06 451.004 2202.06 482.478 2202.06C516.992 2202.06 551.506 2199.94 585.95 2200.22C601.706 2200.5 617.375 2202.64 632.629 2206.59C643.238 2209.2 654.625 2214.3 656.323 2227.81C657.808 2238.98 648.048 2256.45 635.954 2259.14C609.868 2265.71 583.275 2270.06 556.457 2272.15C522.65 2273.64 488.56 2269.53 454.611 2269.6C415.641 2269.6 376.813 2271.37 337.842 2272.93C320.062 2273.74 302.498 2268.77 287.768 2258.78C275.815 2250.93 267.541 2226.32 274.825 2213.59C276.848 2211.29 279.31 2209.41 282.067 2208.08C284.824 2206.74 287.821 2205.97 290.88 2205.81C323.131 2202.41 355.524 2199.94 387.846 2197.11L388.058 2202.06Z" fill="white"/>
<path d="M652.359 2000.49C647.691 2047.6 634.889 2056.72 600.516 2056.22C549.735 2055.52 498.954 2054.31 448.172 2054.17C408.282 2054.17 368.322 2056.29 328.433 2055.73C314.803 2054.87 301.391 2051.89 288.684 2046.89C276.307 2042.64 266.123 2010.39 275.317 2001.91C282.39 1995.68 293.918 1994.13 303.608 1992.5C376.88 1980.55 450.86 1981.54 524.486 1984.08C567.417 1985.57 609.923 1994.48 652.359 2000.49Z" fill="white"/>
<path d="M460.977 2360.84C433.394 2360.84 405.81 2361.2 378.227 2360.84C357.009 2360.42 339.328 2336.44 349.937 2321.31C356.998 2313.56 366.565 2308.55 376.954 2307.16C434.293 2297.58 492.824 2297.58 550.163 2307.16C558.182 2308.72 565.69 2312.25 572.017 2317.42C575.695 2320.32 579.09 2330.08 577.109 2332.34C568.057 2343.37 564.732 2361.2 545.07 2360.63C517.134 2360.49 489.055 2360.77 460.977 2360.84Z" fill="white"/>
</svg>
