<svg width="32" height="36" viewBox="0 0 32 36" fill="none" xmlns="http://www.w3.org/2000/svg">
<path fill-rule="evenodd" clip-rule="evenodd" d="M23.8416 1.36643L23.8433 2.6991C28.7405 3.0829 31.9754 6.4199 31.9807 11.5373L32 26.5165C32.007 32.0959 28.5018 35.5289 22.8832 35.5378L9.1589 35.5555C3.57545 35.5626 0.0263406 32.048 0.0193196 26.4525L1.18218e-05 11.6493C-0.00700918 6.49808 3.11382 3.16997 8.01097 2.72042L8.00922 1.38775C8.00746 0.605923 8.58669 0.0177729 9.359 0.0177729C10.1313 0.015996 10.7105 0.602369 10.7123 1.3842L10.7141 2.62802L21.1402 2.61381L21.1385 1.36998C21.1367 0.588154 21.716 0.00178092 22.4883 4.02754e-06C23.243 -0.00177286 23.8398 0.5846 23.8416 1.36643ZM2.70467 12.1975L29.2791 12.162V11.5401C29.2037 7.71976 27.2869 5.71543 23.8467 5.41691L23.8484 6.78512C23.8484 7.54918 23.2534 8.1551 22.4986 8.1551C21.7263 8.15688 21.1453 7.55273 21.1453 6.78867L21.1436 5.34939L10.7174 5.36361L10.7191 6.80111C10.7191 7.56695 10.1417 8.17109 9.36935 8.17109C8.59704 8.17287 8.01605 7.5705 8.01605 6.80466L8.0143 5.43646C4.59156 5.7794 2.69765 7.79084 2.70291 11.6449L2.70467 12.1975ZM21.7603 20.2728V20.2923C21.7779 21.1097 22.4449 21.7298 23.254 21.712C24.0439 21.6925 24.674 21.0155 24.6565 20.1981C24.6196 19.4163 23.986 18.7784 23.1979 18.7802C22.3904 18.7979 21.7586 19.4554 21.7603 20.2728ZM23.2085 28.2512C22.4011 28.2335 21.7499 27.56 21.7482 26.7426C21.7306 25.9253 22.3783 25.2483 23.1857 25.2287H23.2033C24.0283 25.2287 24.697 25.9022 24.697 26.7373C24.6988 27.5725 24.0318 28.2495 23.2085 28.2512ZM14.5278 20.3014C14.5629 21.1188 15.2316 21.7567 16.0391 21.7211C16.8289 21.6838 17.459 21.0086 17.4239 20.1912C17.4046 19.3916 16.7552 18.7697 15.9653 18.7715C15.1579 18.807 14.526 19.484 14.5278 20.3014ZM16.0456 28.1708C15.2381 28.2063 14.5711 27.5684 14.5343 26.751C14.5343 25.9337 15.1644 25.2585 15.9718 25.2211C16.7617 25.2194 17.4129 25.8413 17.4305 26.6391C17.4673 27.4583 16.8354 28.1335 16.0456 28.1708ZM7.29688 20.3632C7.33198 21.1806 8.00073 21.8203 8.80815 21.783C9.59801 21.7474 10.2281 21.0704 10.1913 20.2531C10.1737 19.4535 9.52429 18.8316 8.73267 18.8333C7.92526 18.8689 7.29512 19.5459 7.29688 20.3632ZM8.81487 28.1819C8.00746 28.2192 7.34046 27.5795 7.3036 26.7621C7.30185 25.9447 7.93374 25.2678 8.74115 25.2322C9.53101 25.2304 10.1822 25.8524 10.1998 26.6519C10.2366 27.4693 9.60649 28.1463 8.81487 28.1819Z" fill="#F0F4F8"/>
</svg>
