<svg width="20" height="20" viewBox="0 0 20 20" fill="none" xmlns="http://www.w3.org/2000/svg">
<path d="M13.6457 2.7082C14.6118 2.71109 15.5375 3.09616 16.2207 3.77931C16.9038 4.46246 17.2889 5.38818 17.2918 6.3543V13.6457C17.2889 14.6118 16.9038 15.5375 16.2207 16.2207C15.5375 16.9038 14.6118 17.2889 13.6457 17.2918H6.3543C5.38818 17.2889 4.46246 16.9038 3.77931 16.2207C3.09616 15.5375 2.71109 14.6118 2.7082 13.6457V6.3543C2.71109 5.38818 3.09616 4.46246 3.77931 3.77931C4.46246 3.09616 5.38818 2.71109 6.3543 2.7082H13.6457ZM13.6457 1.25H6.3543C3.54687 1.25 1.25 3.54687 1.25 6.3543V13.6457C1.25 16.4531 3.54687 18.75 6.3543 18.75H13.6457C16.4531 18.75 18.75 16.4531 18.75 13.6457V6.3543C18.75 3.54687 16.4531 1.25 13.6457 1.25Z" fill="#102A43"/>
<path d="M14.7395 6.35431C14.5231 6.35431 14.3117 6.29016 14.1318 6.16998C13.9519 6.0498 13.8117 5.87898 13.729 5.67912C13.6462 5.47926 13.6245 5.25935 13.6667 5.04718C13.7089 4.83501 13.8131 4.64013 13.9661 4.48716C14.119 4.3342 14.3139 4.23003 14.5261 4.18783C14.7382 4.14562 14.9582 4.16728 15.158 4.25007C15.3579 4.33285 15.5287 4.47304 15.6489 4.6529C15.7691 4.83277 15.8332 5.04424 15.8332 5.26056C15.8335 5.40428 15.8054 5.54665 15.7506 5.67948C15.6957 5.81232 15.6152 5.93302 15.5135 6.03465C15.4119 6.13627 15.2912 6.21683 15.1584 6.27168C15.0255 6.32654 14.8832 6.35462 14.7395 6.35431ZM10 7.08322C10.5769 7.08322 11.1408 7.25428 11.6205 7.57479C12.1002 7.89529 12.474 8.35083 12.6948 8.8838C12.9155 9.41678 12.9733 10.0032 12.8608 10.5691C12.7482 11.1349 12.4704 11.6546 12.0625 12.0625C11.6546 12.4704 11.1348 12.7482 10.569 12.8608C10.0032 12.9733 9.41677 12.9155 8.88379 12.6948C8.35082 12.474 7.89528 12.1002 7.57477 11.6205C7.25427 11.1408 7.0832 10.5769 7.0832 10C7.08403 9.22668 7.3916 8.48527 7.93843 7.93844C8.48525 7.39161 9.22667 7.08404 10 7.08322ZM10 5.62501C9.13471 5.62501 8.28885 5.8816 7.56938 6.36233C6.84992 6.84306 6.28916 7.52635 5.95803 8.32577C5.6269 9.1252 5.54026 10.0049 5.70907 10.8535C5.87788 11.7022 6.29456 12.4818 6.90641 13.0936C7.51826 13.7055 8.29781 14.1221 9.14648 14.291C9.99515 14.4598 10.8748 14.3731 11.6742 14.042C12.4737 13.7109 13.1569 13.1501 13.6377 12.4306C14.1184 11.7112 14.375 10.8653 14.375 10C14.375 8.83969 13.9141 7.72689 13.0936 6.90642C12.2731 6.08595 11.1603 5.62501 10 5.62501Z" fill="#102A43"/>
</svg>
