<?xml version="1.0" standalone="no"?>
<!DOCTYPE svg PUBLIC "-//W3C//DTD SVG 20010904//EN"
 "http://www.w3.org/TR/2001/REC-SVG-20010904/DTD/svg10.dtd">
<svg version="1.0" xmlns="http://www.w3.org/2000/svg"
 width="1080.000000pt" height="1597.000000pt" viewBox="0 0 1080.000000 1597.000000"
 preserveAspectRatio="xMidYMid meet">

<g transform="translate(0.000000,1597.000000) scale(0.100000,-0.100000)"
fill="#000000" stroke="none">
<path d="M1426 9299 c24 -90 1 -270 -48 -379 -42 -92 -188 -294 -300 -415 -52
-56 -116 -160 -138 -225 -18 -54 -21 -82 -18 -160 3 -86 7 -101 37 -155 18
-33 40 -68 49 -78 11 -12 12 -21 5 -28 -24 -24 -121 50 -173 131 -49 77 -61
65 -55 -52 9 -147 27 -193 143 -363 93 -138 107 -169 122 -286 24 -177 45
-218 124 -238 60 -15 397 -14 448 1 73 22 110 97 121 244 7 90 35 153 129 291
102 148 120 190 126 289 7 135 -16 193 -146 363 -36 47 -77 111 -91 141 -24
50 -26 66 -25 173 0 64 -2 117 -6 117 -21 0 -102 -76 -131 -122 -30 -48 -33
-60 -33 -134 -1 -44 4 -92 11 -105 24 -48 43 -101 38 -109 -11 -17 -57 5 -94
45 -71 77 -86 116 -85 230 0 90 3 110 36 200 106 290 111 423 23 578 -23 42
-48 73 -59 75 -17 4 -18 0 -10 -29z"/>
<path d="M2875 8235 c-49 -29 -96 -59 -103 -65 -9 -9 -12 -95 -10 -393 l3
-382 364 -3 364 -2 74 73 c40 40 73 79 73 85 0 9 -78 12 -307 12 -177 0 -314
4 -323 10 -13 8 -15 59 -17 350 -1 329 -3 371 -20 369 -4 0 -48 -25 -98 -54z"/>
<path d="M3817 8073 l-87 -88 0 -352 c0 -228 4 -354 10 -358 6 -4 56 20 113
52 l102 58 5 100 c3 55 9 106 13 113 6 9 63 12 227 12 164 0 221 -3 227 -12 4
-7 10 -56 13 -108 l5 -95 110 0 110 0 3 295 2 295 -87 88 -87 87 -297 0 -296
0 -86 -87z m617 -99 c11 -29 7 -169 -6 -182 -9 -9 -74 -12 -230 -12 -252 0
-238 -6 -238 109 0 110 -21 101 240 101 199 0 229 -2 234 -16z"/>
<path d="M4846 8144 c-3 -9 -6 -207 -6 -440 0 -340 3 -426 13 -430 17 -6 193
92 212 119 9 12 15 43 15 73 l0 52 115 108 c64 60 122 110 129 112 15 3 150
-118 169 -152 6 -12 14 -59 17 -106 l5 -85 110 0 110 0 3 104 3 104 -131 131
c-71 73 -130 139 -130 148 0 9 59 71 130 138 72 67 130 126 130 131 0 5 -57 9
-126 9 l-127 0 -41 -36 c-22 -20 -70 -65 -106 -98 -185 -176 -242 -226 -251
-221 -5 4 -9 76 -9 165 0 87 -3 165 -6 174 -9 24 -219 24 -228 0z"/>
<path d="M5971 8051 c-45 -60 -81 -118 -81 -128 0 -10 25 -49 55 -88 31 -38
67 -84 80 -102 l25 -32 296 -3 296 -3 24 -28 c30 -36 30 -50 -1 -82 l-26 -25
-292 0 -292 0 -77 -77 c-43 -42 -75 -80 -72 -85 3 -4 200 -8 439 -8 l433 0 50
63 c76 97 123 169 118 183 -10 27 -148 204 -166 214 -11 6 -130 10 -304 10
-305 0 -299 -1 -327 52 -9 17 -6 25 17 49 l28 29 277 0 c170 0 289 4 306 11
32 12 153 127 153 146 0 10 -89 13 -439 13 l-439 0 -81 -109z"/>
<path d="M7107 8154 c-11 -11 -9 -872 2 -879 14 -8 197 94 213 119 4 6 8 72 8
147 0 91 4 139 12 147 18 18 431 17 446 -1 7 -8 13 -71 14 -153 l3 -139 110 0
110 0 0 380 0 380 -110 0 -110 0 -2 -125 c-2 -69 -5 -135 -8 -148 l-5 -22
-228 2 -227 3 -5 145 -5 145 -106 3 c-58 1 -108 -1 -112 -4z"/>
<path d="M8199 8143 c5 -10 93 -101 195 -203 l186 -185 0 -242 c0 -233 1 -243
19 -243 16 0 182 89 201 107 3 2 7 87 10 189 l5 184 193 193 c105 105 192 198
192 205 0 9 -32 12 -126 12 l-127 0 -123 -121 c-112 -109 -126 -120 -141 -108
-10 8 -67 62 -127 122 l-110 107 -128 0 c-120 0 -128 -1 -119 -17z"/>
<path d="M9298 8072 l-88 -88 0 -352 c0 -298 2 -353 14 -358 8 -3 42 10 76 30
34 20 64 36 68 36 4 0 23 13 42 29 35 29 35 29 40 132 l5 104 230 0 230 0 3
-94 c1 -52 8 -101 14 -108 14 -17 199 -18 216 -1 9 9 12 89 12 296 l0 285 -87
88 -87 89 -300 0 -300 0 -88 -88z m620 -181 c2 -69 -1 -97 -10 -103 -15 -9
-418 -11 -442 -2 -13 5 -16 23 -16 98 0 51 3 96 7 100 4 3 108 5 232 4 l226
-3 3 -94z"/>
<path d="M1200 6993 c-28 -5 -50 -21 -50 -34 0 -5 9 -18 20 -29 19 -19 33 -20
234 -20 182 0 217 2 230 16 24 23 19 43 -11 56 -29 11 -377 21 -423 11z"/>
<path d="M1479 6875 c-3 -3 -71 -6 -150 -6 -151 -2 -179 -8 -179 -39 0 -44 31
-50 250 -50 170 0 209 3 228 16 26 18 29 46 6 65 -15 13 -145 25 -155 14z"/>
<path d="M1275 6742 c-113 -3 -150 -26 -107 -65 16 -15 47 -17 231 -17 127 0
220 4 232 10 25 14 24 46 -2 61 -22 11 -191 17 -354 11z"/>
<path d="M1268 6609 c-22 -12 -23 -23 -2 -43 12 -13 39 -16 130 -16 116 0 154
9 154 35 0 8 -9 19 -19 25 -25 13 -240 13 -263 -1z"/>
</g>
</svg>
