<svg width="32" height="39" viewBox="0 0 32 39" fill="none" xmlns="http://www.w3.org/2000/svg">
<path fill-rule="evenodd" clip-rule="evenodd" d="M0 16.2126C0 7.55405 7.23554 0.555664 15.9877 0.555664C24.7645 0.555664 32 7.55405 32 16.2126C32 20.5758 30.4132 24.6265 27.8014 28.0598C24.9201 31.847 21.3688 35.1467 17.3714 37.7367C16.4565 38.3353 15.6308 38.3804 14.6267 37.7367C10.6066 35.1467 7.05522 31.847 4.19859 28.0598C1.58491 24.6265 0 20.5758 0 16.2126ZM10.7186 16.7004C10.7186 19.601 13.0856 21.8824 15.9877 21.8824C18.8918 21.8824 21.2815 19.601 21.2815 16.7004C21.2815 13.8224 18.8918 11.43 15.9877 11.43C13.0856 11.43 10.7186 13.8224 10.7186 16.7004Z" fill="#F0F4F8"/>
</svg>
