<svg width="32" height="38" viewBox="0 0 32 38" fill="none" xmlns="http://www.w3.org/2000/svg">
<path fill-rule="evenodd" clip-rule="evenodd" d="M10.2138 27.2898H20.3525C21.1166 27.2898 21.7502 26.6498 21.7502 25.878C21.7502 25.1062 21.1166 24.4851 20.3525 24.4851H10.2138C9.44972 24.4851 8.81606 25.1062 8.81606 25.878C8.81606 26.6498 9.44972 27.2898 10.2138 27.2898ZM16.5132 15.0733H10.2138C9.44972 15.0733 8.81606 15.7133 8.81606 16.4851C8.81606 17.2568 9.44972 17.878 10.2138 17.878H16.5132C17.2773 17.878 17.911 17.2568 17.911 16.4851C17.911 15.7133 17.2773 15.0733 16.5132 15.0733ZM29.8128 13.4278C30.2509 13.4227 30.7279 13.4172 31.1613 13.4172C31.6273 13.4172 32 13.7937 32 14.2643V29.3984C32 34.0667 28.2539 37.8502 23.6319 37.8502H8.79674C3.95108 37.8502 0 33.8784 0 28.9843V8.69254C0 4.0243 3.76471 0.203125 8.40536 0.203125H18.3576C18.8422 0.203125 19.2149 0.598419 19.2149 1.06901V7.13018C19.2149 10.5749 22.0291 13.3984 25.4397 13.4172C26.2364 13.4172 26.9387 13.4232 27.5533 13.4284C28.0315 13.4325 28.4566 13.4361 28.8317 13.4361C29.097 13.4361 29.4409 13.4321 29.8128 13.4278ZM30.3262 10.6796C28.7942 10.6853 26.9883 10.6796 25.6893 10.6665C23.628 10.6665 21.9301 8.95163 21.9301 6.86975V1.90786C21.9301 1.09657 22.9049 0.693746 23.4621 1.27916C24.4707 2.3383 25.8566 3.79415 27.2362 5.24338C28.6125 6.68918 29.9826 8.12839 30.9654 9.16057C31.5096 9.73092 31.1108 10.6777 30.3262 10.6796Z" fill="#F0F4F8"/>
</svg>
